<svg id="Capa_1" data-name="Capa 1" xmlns="http://www.w3.org/2000/svg" viewBox="0 0 864.66 841.1"><path d="M832.92,831.42a29.07,29.07,0,0,1-14.41-16.88q-3.84-11.25-4.73-31.52L792.17,249q-.45-18.91,2.93-29.93a30.27,30.27,0,0,1,13.51-17.34q10.13-6.31,28.58-10.36v-.45H708.42L512.56,745.19,463.81,618.33c31.2-12,57.45-26.85,78.13-44.85V412.7q0-21.9,3.94-33.74t14.46-17.07q10.51-5.26,29.79-7.46V354h-177v.44q19.72,2.2,30,7.46T457.38,379q3.94,11.84,3.94,33.74v188c-1,.93-2.22,1.77-3.27,2.68L299.58,190.93H175.32v.45q15.75,5,26.33,14T217,229.87q4.72,15.54,3.38,40.76L203.25,602.88c-21.88-17.42-36.5-37.72-52.11-65.54Q124,488.93,111.06,428.7A581.87,581.87,0,0,1,98.14,306.24q0-94.19,26.5-162.54T199.56,38.34q48.39-37,114.56-37,42.93,0,77.33,13.35A181,181,0,0,1,451.69,52.8a217,217,0,0,1,43.15,58.71q17.31,33.94,25.63,75.12h.43l-7-145.44q-20.61-15.34-67-28.26T314.12,0Q250.59,0,193.64,19.94A287.82,287.82,0,0,0,93.32,79.53Q49.94,119.16,25,177.66t-25,136q0,74.49,22.78,135.38t65.49,104.7Q131,597.59,190.36,621.24c3.8,1.52,7.81,2.69,11.75,4l-4.74,92.06q-2.25,45.93-8.1,71.36t-19.59,36.71Q156,836.6,129.84,840.66v.44H267.62v-.44q-25.68-4.06-38.27-15.31t-16-36.71q-3.37-25.42-2.48-71.36l11.84-480.45L458.53,841.1h19.35l36-95.91,188-498.44L723.73,783q.9,20.26-3.15,31.74a28.9,28.9,0,0,1-15.08,16.89q-11,5.4-31.3,9v.44H864.66v-.44Q843.49,837,832.92,831.42Z"/></svg>